<svg width="63" height="36" viewBox="0 0 63 36" fill="none" xmlns="http://www.w3.org/2000/svg">
<path d="M56.6899 0H22.2599C12.3299 0 2.54994 8.06 0.419944 18C-1.72006 27.94 4.59994 36 14.5199 36H25.4099C26.8799 36 28.3299 34.81 28.6499 33.33L30.1699 26.27C30.4899 24.8 29.5499 23.6 28.0799 23.6H15.9699C13.2099 23.6 11.2599 21.47 11.7699 18.71C12.2999 15.85 15.0899 13.51 17.9299 13.51H36.9699C38.4399 13.51 39.3799 14.7 39.0599 16.18L35.3699 33.34C35.0499 34.81 35.9899 36.01 37.4599 36.01H46.2899C47.7599 36.01 49.2099 34.82 49.5299 33.34L53.2199 16.18C53.5399 14.71 54.9899 13.51 56.4599 13.51C57.9299 13.51 59.3799 12.32 59.6999 10.84L62.0299 0H56.6999L56.6899 0Z" fill="white"/>
</svg>
